<svg fill="none" height="527" viewBox="0 0 436 527" width="436" xmlns="http://www.w3.org/2000/svg"><circle cx="217.87" cy="308.526" fill="#e2fadb" r="213.87" stroke="#242f40" stroke-width="8"/><g clip-rule="evenodd" fill-rule="evenodd"><path d="m377.742 493.75c8.089-.39 4.836-14.545 4.255-19.743-6.405-18.987-4.899-39.701-7.418-59.602-1.57-18.578-3.586-37.097-5.282-55.661-3.331-37.682-27.253-114.392-54.552-126.729-3.439-15.093-17.642-29.182-35.612-29.182-12.257-14.512-27.009-24.725-45.931-22.663-7.82.356-15.403 8.651-22.895 10.253-4.196.579-41.426-.91-48.883 3.52-5.195 2.668-9.885 7.598-8.357 13.875 2.437 7.605-5.137-.624-20.936 7.493-32.2165 19.355-12.965 45.247-12.112 46.049-20.1045 27.98-37.6767 50.679-45.8071 84.879-5.2693 25.39-4.6761 51.601-9.0911 77.122-1.5588 8.849-3.9503 17.396-6.538 25.989-2.8046 11.246-4.1684 39.276-5.7142 39.527-2.8159.7 1.6274 6.483 4.6112 6.488 82.7252 13.725 166.7532.568 249.9222-1.582 23.439-.815 46.902-1.003 70.34-.033z" fill="#fff"/><path d="m252.36 263.829c.038-.379.549-.378.588 0l.584 5.64c.711 6.888 1.395 13.763 1.891 20.683.618 8.629 1.032 17.256 1.231 25.905.695 30.121.833 60.258.892 90.387 4.073-.283 8.147-.554 12.223-.817 2.765-.179 5.53-.35 8.296-.519l7.052-.428 2.904-.178c1.962-.121 4.191-.616 5.563 1.123.549.696.824 1.6.312 2.426-1.181 1.906-2.994 1.839-5.046 1.922-1.935.078-3.871.155-5.807.229-4.148.162-8.295.314-12.444.43-4.354.122-8.707.221-13.059.296-.044 12.719-.57 25.422-1.139 38.127l-.258 5.718c-.696 15.461-1.445 30.936-2.508 46.377-.088 1.264-1.876 1.261-1.962 0-1.198-17.389-1.988-34.815-2.772-52.227-.569-12.625-.899-25.253-1.057-37.883-.575.004-1.15.012-1.726.014-16.336.071-32.668.142-49.005-.011.027.032.054.065.072.107 1.182 2.792 1.295 6.354 1.266 9.35-.033 3.436-.496 6.83-1.287 10.172-2.834 11.97-10.146 22.691-18.472 31.555l-.272.289c-1.964 2.076-4.218 4.161-5.424 6.806-1.232 2.699-1.659 5.858-2.267 8.759l-.071.333-2.377 10.981c-.755 3.488-.969 8.575-3.729 11.092-2.576 2.348-5.987 1.121-7.199-1.902-.947-2.359-.004-4.951.557-7.309l4.391-18.465c.722-3.012 1.51-6.043 3.068-8.748 1.595-2.77 3.934-4.779 6.32-6.834 4.519-3.891 8.667-8.347 12.175-13.17 3.507-4.822 6.504-10.137 8.606-15.726 1.053-2.798 1.915-5.705 2.51-8.635.565-2.781.56-5.661 1.165-8.412.042-.19.202-.32.386-.378-.044-.122.023-.288.194-.299l13.361-.859c11.876-.766 23.752-1.552 35.618-2.45l2.096-.152c-.162-16.851-.024-33.706.28-50.563.279-15.459.285-30.921.744-46.378.229-7.671.722-15.324 1.27-22.98.561-7.829 1.459-15.592 2.266-23.398zm-125.45 89.633c-.143-.859.937-1.39 1.435-.605 5.689 8.969 8.432 18.713 9.588 29.209 1.021 9.264.72 18.662.212 27.95-.543 9.907-1.176 19.812-1.816 29.713l-.983 15.184-2.468 38.065c-.176 2.723-.794 5.199-3.138 6.464-.297.248-.606.471-.966.663-1.267.677-2.946.335-3.678-.964l.293.193c.256.161-.031-.064-.861-.674l-.705-.912c-.512-.77-.839-1.526-.97-2.441-.204-1.422.06-2.981.153-4.41l1.618-24.96c1.258-19.405 2.726-38.804 3.834-58.218.515-9.049.877-18.106.632-27.17-.244-9.015-.703-18.182-2.18-27.087zm49.216-167.091.315-.053c11.3-1.877 23.588-1.526 33.915 3.923.085.044.047.186-.049.182l-3.324-.133c-10.523-.412-21.014-.656-31.361 1.817l-1.059.256c-3.726.909-7.618 2.022-10.611 4.483-2.86 2.353-4.285 5.983-5.654 9.325l-.184.441c-1.389 3.301-3.148 6.431-6.194 8.494-3.945 2.673-8.69 2.346-13.214 2.709-7.965.64-14.477 6.414-17.717 13.48-1.962 4.278-2.799 9.075-2.965 13.754-.085 2.382-.097 4.857.221 7.223.101.757 1.036 3.513 1.513 3.447 1.059-.147 2.028.406 2.358 1.253 2.617-2.529 5.31-4.985 8.089-7.353 6.927-5.901 14.389-11.25 22.247-15.845 5.997-3.508 12.323-6.984 18.873-9.611-.519-.011-1.031.092-1.526.35-.217.113-.432-.159-.261-.339 2.063-2.172 4.534-2.481 7.026-1.902.532-.169 1.064-.332 1.598-.488.266-.077.398.289.181.431l-.612.391c2.718.91 5.387 2.7 7.499 4.113 6.069 4.057 11.411 9.017 16.826 13.884l.984.882c4.767 4.257 9.654 8.394 15.07 11.809 2.834 1.787 5.812 3.441 8.935 4.671 2.679 1.055 7.04 1.72 8.295 4.551 1.115 1.355.649 3.085-.657 3.997-2.203 2.424-6.609.858-9.234-.152-3.164-1.218-6.229-2.681-9.153-4.397-5.675-3.333-10.909-7.477-15.784-11.886-5.091-4.604-9.894-9.495-14.846-14.243-2.145-2.058-4.241-4.164-6.39-6.218l-1.079-1.023c-1.097-1.029-2.66-2.632-4.33-3.603-3.148 1.878-6.344 3.679-9.463 5.605-4.354 2.689-8.579 5.572-12.74 8.55-8.009 5.732-15.599 12.153-22.646 19.035-12.922 12.621-23.932 27.033-33.5505 42.294l-.7304 1.163c-5.4655 8.734-10.6341 17.751-14.2989 27.402-4.0323 10.621-5.9935 21.789-7.0588 33.063-1.0574 11.193-1.414 22.443-2.5957 33.626-1.2118 11.469-3.5995 22.684-6.3154 33.879l-.6477 2.654c-2.4574 10.026-4.9938 20.052-6.257 30.315-.6744 5.481-1.08 11.038-.9883 16.564.0921 5.559.9653 10.994 1.6698 16.494.2699 2.107-1.8029 3.866-3.6577 4.145-2.1332.32-3.9658-1.041-4.6289-3.023-2.067-6.179-2.4425-13.01-2.3776-19.495.0653-6.585.9054-13.126 2.0875-19.597 2.3249-12.728 5.9127-25.192 8.914-37.768 2.6452-11.084 4.4204-22.188 5.3773-33.543.9934-11.781 1.5882-23.601 3.4003-35.297 1.7887-11.547 5.1542-22.576 10.2297-33.104 4.6213-9.586 10.382-18.609 16.4215-27.355 7.3338-10.62 15.3898-20.726 24.3938-29.933-.809-.035-1.64-.297-2.402-.772-2.334-1.456-3.42-4.304-3.754-6.904-.782-6.083-.593-12.433.97-18.38 2.523-9.594 9.071-18.118 18.561-21.576 2.442-.89 5.039-1.215 7.627-1.279 2.457-.061 5.139.259 7.509-.52 3.773-1.24 5.39-5.685 6.806-9.053l.066-.155c1.816-4.293 3.996-7.973 7.93-10.654 4.197-2.86 9.456-4.161 14.408-5.001zm107.369 16.978c3.395-1.178 7.641-.109 10.962.921 3.699 1.147 7.118 3.26 10.049 5.769 3.092 2.646 5.648 5.914 7.453 9.564l.173.352c1.649 3.386 3.527 8.035 2.695 11.755-.024.105-.051.207-.082.305 6.737 3.318 12.959 7.473 18.378 12.74 6.309 6.132 11.651 13.11 16.172 20.648 17.955 29.942 21.115 65.901 23.236 100.047l.529 8.657c1.151 18.696 2.499 37.347 5.999 55.784l.256 1.331c3.741 19.304 9.097 38.755 8.555 58.558-.163 5.933-8.929 5.893-9.183 0-.957-22.181-6.132-43.597-9.636-65.431-6.166-38.413-3.076-78.015-11.812-116.044-3.429-14.924-8.74-29.4-16.323-42.721-3.746-6.581-8.032-12.94-13.053-18.618-4.319-4.885-8.809-9.586-13.857-13.693-1.613 1.616-4.836.793-5.678-1.563-.578-1.62-.41-3.513-.781-5.209-.345-1.574-.82-3.134-1.453-4.617-1.261-2.954-3.113-5.79-5.251-8.181-2.309-2.585-4.964-4.732-7.934-6.505-2.99-1.785-6.261-2.318-9.414-3.622-.107-.044-.117-.186 0-.227zm13.192 205.294c.005-.155.189-.229.302-.125 1.191 1.096 1.91 2.669 2.786 4.016 1.011 1.555 2.072 3.077 3.185 4.56 2.229 2.971 4.711 5.772 7.212 8.516 2.327 2.551 4.807 4.995 7.379 7.299 2.787 2.497 5.91 4.724 8.442 7.488 5.284 5.769 6.138 13.685 7.252 21.119l.122.804c.68 4.412 1.289 8.835 1.838 13.265.267 2.154.534 4.311.751 6.471l.067.685c.194 2.114.246 4.26-.968 6.108-1.3 1.976-4.254 2.669-6.011.774-3.019-3.256-2.453-9.041-2.846-13.23-.324-3.464-.692-6.924-1.104-10.378l-.21-1.727c-.485-3.93-.879-7.939-1.778-11.801-.793-3.4-2.302-5.967-4.78-8.431-2.495-2.482-5.089-4.798-7.392-7.471-2.443-2.835-4.647-5.874-6.633-9.046-1.699-2.714-3.06-5.666-4.307-8.616l-.207-.491c-1.206-2.876-3.194-6.62-3.1-9.789zm43.581-123.539c.027-.402.62-.408.628 0 .075 3.45.147 6.9.219 10.351.576 27.803.221 55.672 3.01 83.381 1.315 13.064 3.737 25.936 6.539 38.755 1.434 6.559 2.939 13.102 4.368 19.662 1.393 6.394 2.887 12.818 3.993 19.271 1.085 6.342 2.058 12.733 2.495 19.157l.053.838c.188 3.111 1.085 7.688-.628 10.446-1.856 2.988-5.409 3.041-7.398.189-1.867-2.678-1.403-7.441-1.733-10.635-.335-3.255-.69-6.512-1.092-9.759-.786-6.334-1.821-12.654-2.898-18.945-2.242-13.101-5.495-26.036-7.895-39.116-2.461-13.403-4.21-26.901-4.284-40.547-.073-13.762 1.384-27.497 2.119-41.229.746-13.947 1.595-27.883 2.504-41.819zm-131.305-86.479c.746-2.514 3.38-4.085 5.949-3.379 2.355.647 4.299 3.506 3.378 5.951-1.004 2.669-2.76 4.945-4.24 7.37-1.367 2.242-3.361 4.007-4.754 6.208l1.535 1.655c.768.826 1.538 1.647 2.316 2.453l2.677 2.773c2.085 2.156 4.182 4.3 6.339 6.381 6.343 6.119 12.786 12.038 19.889 17.278 1.617 1.193 3.247 2.379 4.922 3.489l.625.414c1.149.753 2.431 1.493 3.82 1.365 3.373-.31 6.422-3.894 8.74-6.124l.121-.116c5.746-5.468 11.066-11.447 15.717-17.875 1.032-1.428 2.032-2.881 3.006-4.35-2.249-2.628-1.712-7.757-1.836-10.943-.087-2.241-.094-4.482-.106-6.724l-.006-.452c-.027-1.451-.093-2.843.849-4.037.055-.069.168-.067.238-.031 1.289.676 1.687 1.808 2.237 3.077l.058.132c.669 1.524 1.311 3.062 1.959 4.594.68 1.605 1.303 3.233 1.934 4.857.294.755.574 1.513.848 2.276.168.487.34.971.518 1.455l.042.037c.234.199.433.409.604.626.72.36 1.292 1.016 1.56 1.98.584 2.098-.625 3.809-1.703 5.474-4.378 6.767-9.369 13.215-14.918 19.064-2.756 2.906-5.654 5.681-8.672 8.313l-.528.457c-2.711 2.331-5.655 4.538-9.276 5.084-4.237.637-7.685-1.47-10.929-3.898l-.324-.244c-3.075-2.329-6.088-4.739-9.007-7.26-5.952-5.14-11.614-10.659-16.64-16.714-4.888-5.89-9.72-12.475-12.733-19.562-.184-.432.299-.884.678-.523 1.472 1.401 2.888 2.879 4.287 4.375.039-2.202-.368-4.424-.142-6.641.276-2.694.197-5.671.968-8.265z" fill="#000"/><path d="m239.069 25.6224c19.552 0 43.012 9.4729 45.007 9.6624l.054.0029c1.049 0 5.149 3.122 12.301 9.3661l-7.746 15.0985.627.5982c3 2.8742 5.56 5.4939 7.582 7.5591 16.504 16.862 19.471 83.0674 15.581 106.1544-3.89 23.088-11.094 45.68-44.633 45.68-33.54 0-70.853-20.154-76.601-26.43-3.832-4.184-8.137-6.189-12.913-6.014-.197-.247-.391-.494-.584-.74l-.703-.1c-6.611-.957-11.348-2.245-14.21-3.863-5.592-3.161-11.737-19.781-11.737-23.442 0-3.625-9.177-29.992-9.361-32.782l-.002-.077c0-2.333-11.989-13.055-11.989-16.461 0-3.405-2.416-3.198 0-15.1979l.702-3.5252c2.572-12.776 7.605-33.9313 26.795-43.124 21.089-10.1018 62.079-22.3655 81.83-22.3655z" fill="#fff"/><path d="m153.984 47.5134c10.518-11.1565 70.227-28.4129 100.436-24.755l.906.1173c2.411.3055 4.786.7682 7.131 1.3966 7.579 1.769 15.408 4.4475 21.67 8.9215 5.228 3.6601 21.72 9.6373 16.859 19.2122 1.802 3.4126 2.475 7.6287 1.257 10.9898-.153 1.161-.511 2.2303-.969 3.3389 3.85 5.6786 6.899 12.1006 9.367 18.2087 4.312 15.3726 6.996 31.3696 7.389 47.0536 1.308 29.798-1.962 65.391-27.93 84.659-15.688 12.21-40.261 12.62-57.89-2.519-1.001-1.183-5.706-4.376-4.135-4.936.467.493.947.973 1.436 1.445-.022-.053-.026-.105-.017-.162l-.46-.416c-.867-.801-1.989-1.963-.711-1.736.057.066.118.123.179.188.271.162.475.303.634.427l.082.066-.025-.027c-.736-.784-1.178-1.585-.077-1.074l.146.071c.49.515.987 1.008 1.494 1.489-.009-.057 0-.114.031-.175l-.473-.456c-.461-.452-.39-.453-.165-.818-.98-1.373.849-.558.978-.022 1.144-.271 2.149 1.876 2.886 2.138 32.318 24.83 79.216 2.798 78.456-66.39l-.011-1.354c-.222-22.123-2.085-44.8619-11.242-64.8887-.89-1.9291-1.886-3.8059-2.982-5.6215-.756-1.3617-1.564-2.6886-2.433-3.9805-2.433-.1964-4.835-.6415-7.201-1.3311-.813-.2052-1.616-.4321-2.42-.6984-11.739.6399-23.216 1.336-34.988 1.9959l-3.677.2289c-9.972.6407-20.285 1.6669-28.333 7.8311-7.896 5.6119-7.931 16.6781-14.69 22.8395-9.639 6.5378-9.709 12.4328-11.565 22.0668.137 7.263 5.176 17.815-4.071 20.871 1.56 2.223-.614 1.155-.785.376-.018.004-.035.008-.048.008 1.39 2.583-.654.957-.834.127-.11-.031-.219-.109-.328-.218 1.401 2.262-.863.678-.729.266-2.707-4.157-8.277-4.803-12.203-3.701-.048.148-.222.161-.331.083-16.695 3.615-12.387 38.154 4.721 34.815.732-.149.715.202.86.236-.395-1.037.719-.615.707-.397l.068-.003c.054-.005.032-.011.072.003-.382-2.121 1.768.952 1.598 1.078.066-.039.14-.061.206-.07l-.074-.201c-.357-.95-.326-.555-.324-1.1-.268-.672-.288-.378-.225-.816.943-.73 1.221 1.484 1.535 1.646-.539-.751-.11-1.364.398-.957 3.853 8.1 8.831 15.711 15.263 21.706.704.554 1.416 1.099 2.153 1.614 2.736 2.382 6.933 3.914 9.495 6.023 0 .035-.017.079-.044.123l.059.053.059.056.891.428c.262.222.498.471.707.746.223.257.419.541.586.842.083.367-.101.52-.45.362-.153-.052-.306-.113-.459-.17.009.013.013.022.022.031.05.076.39.862-.001.734l-.047-.018c-.214-.079-.428-.166-.637-.249.249.31.475.646.676.929.215.223.345.485.398.782-.009.166-.1.235-.266.214-.254-.083-.503-.171-.752-.262l.071.135c.176.346.426.927-.018.733-.381-.118-.747-.253-1.114-.401-.031.061-.092.083-.214.026-1.166-.415-2.293-.921-3.371-1.519-.948-.69-1.905-1.366-2.856-2.051-.896-.537-1.761-1.135-2.586-1.807-5.523-3.565-10.358-8.094-14.193-13.137-6.415 5.552-19.241.248-27.175-4.099-7.018-3.884-9.776-11.066-10.49-18.81-1.482-10.425-10.007-13.993-9.414-36.868-.013.005-.027.005-.044.005-.31-.092-.611-.214-.895-.371-.293-.14-.568-.306-.826-.507l-.319-.44c-.165-.092-.314-.188-.427-.284l-.059.076c-.186.225-.061-.114-.05-.181l-.554-.753c-1.313-1.791-2.754-3.802-3.928-5.41l-.037.066c-.026.049-.04.085-.028.1-2.792-4.01-5.419-8.854-6.149-13.543-.861-3.612-.525-7.334.227-10.6797 3.223-11.7165 13.779-38.2301 27.64-49.5939zm75.792 162.0336-.175-.156.154.193c.081.1.163.189.298.28-.009-.03-.009-.061-.005-.096-.089-.068-.18-.142-.272-.221zm24.51-180.9014c-20.486-1.7602-40.635 2.7501-60.183 8.2096l-1.349.3874c-11.115 3.1697-22.869 6.022-32.262 12.8065-13.124 10.0458-19.901 26.0269-25.815 40.782-5.165 10.9629-2.525 23.3239 5.258 30.9789.809-7.606 2.19-14.991 4.347-22.3158.451-1.1443.11-1.5192 1.08-1.6685 1.466 19.7393-5.753 34.3243 8.533 57.7193 6.198 11.038-.977 19.115 16.527 24.924l.473.181c3.647 1.375 7.629 2.461 11.201 1.692l-.32-.52c-.326-.536-.425-.796.049-1.025-.012-.026-.03-.053-.048-.083-.384-.725-.755-1.458-1.109-2.2-.144.048-.288.083-.437.122.097.179.109.358-.161.419-.962.33-1.951.463-2.962.401l-.217-.017c-1.143-.069-1.863-.278-2.508-.471-.213-.035-.427-.07-.637-.113-2.072-.46-4.266-1.628-5.686-2.785-16.184-9.186-14.511-40.458 5.437-43.414.41-19.689 9.78-52.9064 25.332-71.6681 14.057-17.2577 52.434-24.7376 79.133-22.1001.389.1287.778.2588 1.168.3902 4.119.3657 8.044 2.1997 12.167 3.0516-2.96-2.2167-6.318-3.6932-9.776-4.948-6.891-4.2122-14.79-6.4913-22.422-8.0988-1.581-.3884-3.183-.6023-4.813-.6372zm-81.702 119.8274c1.073-.582.95-.02 1.197-.183 7.715-.629 16.034 6.121 20.347 11.749-.341.354-1.262-.694-1.424-.86-.022.022-.048.04-.074.048l.12.17c1.748 2.507-1.717-.443-2.042-1.051-.057.03-.113.048-.179.035.275.269 1.114.971 1.258 1.47l.222.185c2.098 1.795 1.924 3.145-.457.597.056.118.078.227.038.314l.082.055c1.171.817 2.134 3.097-.313.757.255 1.709-2.425-1.595-2.511-1.572-4.637-3.637-11.465-7.175-17.281-7.65l-.2-.023c-1.068-.138-1.573-.454-1.198-1.152-1.314-.312-1.006-.959-.384-.938-.927-.609-.093-1.192.445-.964-.37-1.024 1.114-.342 1.249-.485.77-1.187.978-.197 1.105-.502zm-16.172-63.438c3.706-1.3565 14.652 2.7043 13.776 8.0822-.521 1.2347-2.239 1.9422-3.447 1.2452l-1.576-1.0579c-2.743-1.8357-5.216-3.4453-8.161-5.0463-1.603-.7948-2.293-2.4821-.592-3.2232zm21.083-7.9919-1.431-.9308c-7.723-5.0513-18.641-12.7052.722-4.7863 2.206.9458 5.138 1.5053 6.343 3.6055 1.891 3.8709-3.087 4.131-5.634 2.1116zm.868-22.6645c-.62-2.3503 7.092.4076 9.336 1.1348l.342.129c2.184.8132 4.687 1.5675 5.993 3.4507 1.53 2.6022-1.567 3.1412-3.485 1.9658-3.934-2.5689-8.247-4.5072-12.186-6.6803zm19.609-10.9483c-4.34-4.737 7.276-.1991 9.016 1.0605l.05.0371c1.298.9135 1.035 2.8811-.185 3.4589-3.471.0659-6.025-2.8251-8.881-4.5565zm19.751-5.19c-6.9-4.9559 2.19-2.5986 5.347-.6564 2.151 1.8964-.065 5.0978-5.347.6564z" fill="#000"/><path d="m278.98 140.221c3.161 1.922 7.978 6.403 4.577 11.168-4.003 4.201-9.766-.616-12.606-2.794-2.633-1.689-5.591 2.654-3.148 4.625 20.521 15.198 28.849-12.497 12.776-15.259-1.77-.304-2.427 1.665-1.599 2.26zm-36.774-17.679c.349-4.336 6.952-5.321 7.608-1.03.589 3.844-.104 7.375-1.835 10.836-1.654 3.306-5.81 1.764-6.125-1.247-.421-4.036.135-5.861.352-8.559zm50.258-1.919c.921-1.206 2.25-2.029 3.842-1.564 4.975 1.454 3.509 8.519 1.762 11.958-.95 1.867-4.018 2.341-5.405.697-2.261-2.682-3.343-8.037-.47-10.678.078-.137.165-.274.271-.413zm-44.555-17.055.786-.138c2.431-.42 5.454-.824 7.174 1.131.912 1.036 1.226 2.963 0 3.956-2.157 1.746-4.541 1.069-7.125 1.217-2.13.122-4.177.475-6.229 1.061-4.501 1.287-8.168 3.636-12.012 6.215-.504.339-1.019-.307-.778-.778 2.219-4.348 6.519-7.919 10.826-10.096 2.299-1.162 4.815-2.126 7.358-2.568zm40.02-1.948.602.124c6.545 1.368 15.05 4.102 18.149 10.533.119.91-.006 1.105-.108 1.232l-.033.042c-.084.109-.151.259-.545.383-.109-.026-.22-.054-.331-.083-1.421-.373-2.545-.886-3.634-1.418l-1.18-.582c-1.369-.671-2.75-1.318-4.213-1.796-3.124-1.019-6.337-1.737-9.6-2.12-.707-.083-1.388-.322-1.925-.731-.51-.388-.9-.926-1.077-1.641-.23-.925-.164-1.625.332-2.46.373-.626.907-1.061 1.52-1.31.625-.254 1.336-.314 2.043-.173z" fill="#000"/><path d="m285.131 187.093c-3.899-3.474-8.268-10.458-13.869-4.932-1.385 1.562-1.946 5.062-4.064 5.749-2.813.913-5.601-2.065-6.559-4.351-3.923-12.702 12.291-16.186 21.528-14.134 4.513 1.853 7.836 9.315 8.037 13.209.13 2.617-2.084 6.465-5.073 4.459zm29.41-19.579c-.038-.169-.091-.321-.155-.46-1.724-.652-3.088.013-3.931 1.255.027.309.119.622.178.928-.651 1.371-1.238 3.067-2.119 4.251-.175.014-.355-.005-.528-.055-14.615 1.527-7.48-13.769-22.303-17.568-11.458-1.89-32.168.276-37.573 12.205-4.263 19.055-25.939 5.778-33.056-4.132-7.594-9.019-12.504-20.039-17.238-30.733-1.001-2.264-4.123-.645-3.784 1.526-4.376 8.781-4.23 19.329-5.314 28.948-1.843 19.192-3.639 46.106 14.187 57.825 23.227 26.26 81.227 35.527 108.016 11.398 9.274-19.943 8.131-44.273 3.62-65.388z" fill="#000"/></g></svg>