<?xml version="1.0" encoding="UTF-8" standalone="no"?>
<!DOCTYPE svg PUBLIC "-//W3C//DTD SVG 1.1//EN" "http://www.w3.org/Graphics/SVG/1.1/DTD/svg11.dtd">
<svg width="100%" height="100%" viewBox="0 0 69 69" version="1.1" xmlns="http://www.w3.org/2000/svg" xmlns:xlink="http://www.w3.org/1999/xlink" xml:space="preserve" xmlns:serif="http://www.serif.com/" style="fill-rule:evenodd;clip-rule:evenodd;">
    <g transform="matrix(1,0,0,1,-243.548,-298.17)">
        <g transform="matrix(0.100629,0,0,0.100629,245.276,299.899)">
            <circle cx="323.5" cy="323.5" r="318" style="fill:rgb(196,241,190);stroke:rgb(8,99,117);stroke-width:11px;"/>
        </g>
        <g transform="matrix(0.100629,0,0,0.100629,245.276,299.899)">
            <path d="M225.089,326.595C224.983,326.553 224.877,326.51 224.771,326.466C172.983,305.323 156.552,241.639 184.536,193.415C207.328,170.627 227.746,156.662 245.79,151.521C273.146,143.177 290.317,138.957 297.301,138.86C318.984,141.48 357.164,148.402 386.314,165.897C415.463,183.392 449.533,253.271 406.732,303.485C391.93,320.85 371.798,331.481 349.643,337.065C350.821,332.076 349.282,326.498 344.221,319.969C340.732,315.468 333.838,312.385 323.539,310.719C324.25,308.278 324.843,305.546 325.298,302.493C328.369,281.895 327.244,261.754 327.704,241.144C328.369,211.387 327.296,197.178 325.298,182.201C321.666,155.087 311.346,152.522 300.337,152.128C274.348,151.2 272.971,192.016 272.971,241.144C272.971,263.127 273.149,282.72 274.775,296.21C275.17,299.484 275.427,302.408 275.978,304.899C276.43,306.942 276.932,308.819 277.481,310.535C270.09,311.45 262.752,312.656 256.262,314.058C245.793,316.321 235.402,320.5 225.089,326.595Z" style="fill:rgb(3,63,99);fill-rule:nonzero;"/>
        </g>
        <g transform="matrix(0.100629,0,0,0.100629,245.276,299.899)">
            <path d="M197.755,354.933C224.521,330.93 267.279,324.213 303.814,327.85C326.105,327.215 332.116,338.452 326.559,347.268C321.001,356.086 305.03,366.285 290.511,363.645C285.891,364.966 252.37,356.267 233.398,375.659C222.788,396.107 232.842,406.402 263.56,406.541L370.477,406.541C427.096,413.351 484.788,440.4 478.75,506.102C476.919,526.013 468.62,544.069 454.689,558.363C423.336,590.535 369.556,600.954 326.009,601.296C281.187,601.648 219.95,593.8 185.612,561.396C153.47,531.064 188.715,475.889 229.541,494.731C247.086,502.828 213.205,536.591 238.006,552.261C262.241,567.571 296.952,573.705 325.32,574.154C356.66,574.652 408.652,568.425 422.411,536.333C439.832,495.694 387.868,486.986 359.565,482.193C304.431,472.853 204.658,504.76 174.746,428.913C172.172,422.387 171.646,413.334 172.054,406.37C173.496,381.778 183.119,368.057 197.755,354.933ZM366.856,155.76L360.854,153.162L354.407,150.738C347.347,119.237 349.932,95.368 362.161,79.128C380.506,54.768 425.615,48.153 447.569,72.512C469.522,96.871 457.794,140.477 423.51,141.68C389.227,142.883 382.188,112.402 385.618,110.404C387.906,109.072 393.519,105.663 402.459,100.179C405.096,87.118 399.482,80.903 385.618,81.534C364.822,82.48 362.361,107.252 362.161,118.824C361.962,130.397 364.666,144.594 365.77,153.709C365.871,154.547 366.233,155.231 366.856,155.76Z" style="fill:rgb(3,63,99);fill-rule:nonzero;"/>
        </g>
        <g transform="matrix(0.100629,0,0,0.100629,245.276,299.899)">
            <path d="M199.755,349.933C226.521,325.93 269.279,319.213 305.814,322.85C328.105,322.215 334.116,333.452 328.559,342.268C323.001,351.086 307.03,361.285 292.511,358.645C287.891,359.966 254.37,351.267 235.398,370.659C224.788,391.107 234.842,401.402 265.56,401.541L372.477,401.541C429.096,408.351 486.788,435.4 480.75,501.102C478.919,521.013 470.62,539.069 456.689,553.363C425.336,585.535 371.556,595.954 328.009,596.296C283.187,596.648 221.95,588.8 187.612,556.396C155.47,526.064 190.715,470.889 231.541,489.731C249.086,497.828 215.205,531.591 240.006,547.261C264.241,562.571 298.952,568.705 327.32,569.154C358.66,569.652 410.652,563.425 424.411,531.333C441.832,490.694 389.868,481.986 361.565,477.193C306.431,467.853 206.658,499.76 176.746,423.913C174.172,417.387 173.646,408.334 174.054,401.37C175.496,376.778 185.119,363.057 199.755,349.933Z" style="fill:rgb(50,112,138);fill-rule:nonzero;"/>
        </g>
        <g transform="matrix(0.100629,0,0,0.100629,245.276,299.899)">
            <path d="M227.089,321.595C226.983,321.553 226.877,321.51 226.771,321.466C174.983,300.323 158.552,236.639 186.536,188.415C209.328,165.627 229.746,151.662 247.79,146.521C275.146,138.177 292.317,133.957 299.301,133.86C320.984,136.48 359.164,143.402 388.314,160.897C417.463,178.392 451.533,248.271 408.732,298.485C393.93,315.85 373.798,326.481 351.643,332.065C352.821,327.076 351.282,321.498 346.221,314.969C342.732,310.468 335.838,307.385 325.539,305.719C326.25,303.278 326.843,300.546 327.298,297.493C330.369,276.895 329.244,256.754 329.704,236.144C330.369,206.387 329.296,192.178 327.298,177.201C323.666,150.087 313.346,147.522 302.337,147.128C276.348,146.2 274.971,187.016 274.971,236.144C274.971,258.127 275.149,277.72 276.775,291.21C277.17,294.484 277.427,297.408 277.978,299.899C278.43,301.942 278.932,303.819 279.481,305.535C272.09,306.45 264.752,307.656 258.262,309.058C247.793,311.321 237.402,315.5 227.089,321.595Z" style="fill:rgb(72,187,120);fill-rule:nonzero;"/>
        </g>
        <g transform="matrix(0.100629,0,0,0.100629,245.276,299.899)">
            <path d="M365.856,150.76L359.854,148.162L353.407,145.738C346.347,114.237 348.932,90.368 361.161,74.128C379.506,49.768 424.615,43.153 446.569,67.512C468.522,91.871 456.794,135.477 422.51,136.68C388.227,137.883 381.188,107.402 384.618,105.404C386.906,104.072 392.519,100.663 401.459,95.179C404.096,82.118 398.482,75.903 384.618,76.534C363.822,77.48 361.361,102.252 361.161,113.824C360.962,125.397 363.666,139.594 364.77,148.709C364.871,149.547 365.233,150.231 365.856,150.76Z" style="fill:rgb(72,187,120);fill-rule:nonzero;"/>
        </g>
    </g>
</svg>
